<svg width="17" height="19" viewBox="0 0 17 19" fill="none" xmlns="http://www.w3.org/2000/svg">
<path d="M8.53414 9.75C12.4761 9.75 16.5211 12.313 16.7831 17.462C16.7932 17.6605 16.7241 17.8548 16.591 18.0024C16.4579 18.15 16.2716 18.2387 16.0731 18.249C13.9931 18.355 4.36014 18.42 0.996142 18.249C0.797498 18.2389 0.610997 18.1503 0.47766 18.0027C0.344324 17.8552 0.275074 17.6606 0.285142 17.462C0.547142 12.314 4.59214 9.75 8.53414 9.75ZM8.53414 0.75C7.53958 0.75 6.58575 1.14509 5.88249 1.84835C5.17923 2.55161 4.78414 3.50544 4.78414 4.5C4.78414 5.49456 5.17923 6.44839 5.88249 7.15165C6.58575 7.85491 7.53958 8.25 8.53414 8.25C9.5287 8.25 10.4825 7.85491 11.1858 7.15165C11.8891 6.44839 12.2841 5.49456 12.2841 4.5C12.2841 3.50544 11.8891 2.55161 11.1858 1.84835C10.4825 1.14509 9.5287 0.75 8.53414 0.75Z" fill="#929292"/>
</svg>
