<svg width="21" height="21" viewBox="0 0 21 21" fill="none" xmlns="http://www.w3.org/2000/svg">
<path d="M2.16675 10.5003C2.16675 15.1028 5.89758 18.8337 10.5001 18.8337C15.1026 18.8337 18.8334 15.1028 18.8334 10.5003C18.8334 5.89783 15.1026 2.16699 10.5001 2.16699V3.83366C12.0963 3.83384 13.6395 4.40674 14.8491 5.44823C16.0588 6.48972 16.8546 7.93066 17.0919 9.50914C17.3292 11.0876 16.9923 12.6989 16.1424 14.05C15.2925 15.4011 13.986 16.4025 12.4604 16.872C10.9348 17.3416 9.29136 17.2482 7.8288 16.6087C6.36624 15.9693 5.18164 14.8264 4.49033 13.3876C3.79901 11.9489 3.64687 10.3098 4.06155 8.7684C4.47623 7.22699 5.43021 5.88552 6.75008 4.98783V7.16699H8.41675V2.16699H3.41675V3.83366H5.50008C4.46464 4.60943 3.62426 5.61587 3.04564 6.77311C2.46703 7.93034 2.1661 9.2065 2.16675 10.5003Z" fill="#6F6F6F"/>
</svg>
